# xmcd
#
# Track frame offsets: 
#        150
#        14014
#        33483
#        47078
#        61558
#        75352
#        87851
#        100599
#        117376
#        131300
#        142475
#        154968
#
# Disc length: 2274 seconds
#
# Revision: 0
# Processed by: cddbd v1.5.2PL0 Copyright (c) Steve Scherf et al.
# Submitted via: ExactAudioCopy v1.0b3
#
DISCID=9708e00c
DTITLE=Pete Denahy - WIshbone Road
DYEAR=2012
DGENRE=Country
TTITLE0=Oh Lord Comfort Me
TTITLE1=Jesse Twist
TTITLE2=The Wind Blows Cold on the Mountain
TTITLE3=Yackandandah 1852
TTITLE4=Where are you my darling
TTITLE5=Matty Clune
TTITLE6=Goodbye John
TTITLE7=Patrick's Going to Hang
TTITLE8=Girl from Chinatown
TTITLE9=Ellen's Dream
TTITLE10=The Creek is on the Rise
TTITLE11=Wishbone Road
EXTD=
EXTT0=
EXTT1=
EXTT2=
EXTT3=
EXTT4=
EXTT5=
EXTT6=
EXTT7=
EXTT8=
EXTT9=
EXTT10=
EXTT11=
PLAYORDER=
